<?xml version="1.0" encoding="UTF-8" standalone="no"?>
<!-- Created with Bouml (http://bouml.free.fr/) -->
<!DOCTYPE svg PUBLIC "-//W3C//DTD SVG 1.1//EN" "http://www.w3.org/Graphics/SVG/1.1/DTD/svg11.dtd">
<svg width="1575" height="801" version="1.1" xmlns="http://www.w3.org/2000/svg">
<g>
	<line stroke="black" stroke-dasharray="18,6"  stroke-opacity="1" x1="293" y1="49" x2="293" y2="801" />
</g>
<g>
	<line stroke="black" stroke-dasharray="18,6"  stroke-opacity="1" x1="825" y1="365" x2="825" y2="801" />
</g>
<g>
	<line stroke="black" stroke-dasharray="18,6"  stroke-opacity="1" x1="116" y1="49" x2="116" y2="801" />
</g>
<g>
	<line stroke="black" stroke-dasharray="18,6"  stroke-opacity="1" x1="1029" y1="462" x2="1029" y2="801" />
</g>
<g>
	<rect fill="#cbcbcb" stroke="none" stroke-opacity="1" x="711" y="8" width="3" height="25" />
	<rect fill="#cbcbcb" stroke="none" stroke-opacity="1" x="558" y="30" width="156" height="3" />
	<rect fill="#ffffc0" stroke="black" stroke-width="1" stroke-opacity="1" x="554" y="4" width="157" height="26" />
	<text font-family="Helvetica" font-size="12" fill="#000000" xml:space="preserve" text-decoration="underline" text-anchor="middle" x="633" y="23">:SensorManager.cpp</text>
</g>
<g>
	<rect fill="#cbcbcb" stroke="none" stroke-opacity="1" x="1103" y="421" width="3" height="25" />
	<rect fill="#cbcbcb" stroke="none" stroke-opacity="1" x="955" y="443" width="151" height="3" />
	<rect fill="#ffffc0" stroke="black" stroke-width="1" stroke-opacity="1" x="951" y="417" width="152" height="26" />
	<text font-family="Helvetica" font-size="12" fill="#000000" xml:space="preserve" text-decoration="underline" text-anchor="middle" x="1027" y="436">:ISensorService.cpp</text>
</g>
<g>
	<polygon fill="#c0ffff" stroke="black" stroke-opacity="1" points="704,359 916,359 916,370 927,370 927,421 704,421 704,359" />
	<line stroke="black" stroke-opacity="1" x1="916" y1="359" x2="927" y2="370" />
	<text font-family="Helvetica" font-size="12" fill="#000000" xml:space="preserve" x="715" y="389">/frameworks/native/libs</text>
	<text font-family="Helvetica" font-size="12" fill="#000000" xml:space="preserve" x="715" y="408">/sensor/SensorManager.cpp</text>
</g>
<g>
	<line stroke="black" stroke-dasharray="18,6"  stroke-opacity="1" x1="634" y1="49" x2="634" y2="801" />
</g>
<g>
	<rect fill="#cbcbcb" stroke="none" stroke-opacity="1" x="360" y="8" width="3" height="27" />
	<rect fill="#cbcbcb" stroke="none" stroke-opacity="1" x="226" y="32" width="137" height="3" />
	<rect fill="#ffffc0" stroke="black" stroke-width="1" stroke-opacity="1" x="222" y="4" width="138" height="28" />
	<text font-family="Helvetica" font-size="12" fill="#000000" xml:space="preserve" text-decoration="underline" text-anchor="middle" x="291" y="24">:ASensorManager</text>
</g>
<g>
	<rect fill="#cbcbcb" stroke="none" stroke-opacity="1" x="173" y="8" width="3" height="27" />
	<rect fill="#cbcbcb" stroke="none" stroke-opacity="1" x="60" y="32" width="116" height="3" />
	<rect fill="#ffffc0" stroke="black" stroke-width="1" stroke-opacity="1" x="56" y="4" width="117" height="28" />
	<text font-family="Helvetica" font-size="12" fill="#000000" xml:space="preserve" text-decoration="underline" text-anchor="middle" x="115" y="24">:sensortest.cpp</text>
</g>
<g>
	<rect fill="none" stroke="black" stroke-width="1" stroke-opacity="1" x="820" y="467" width="11" height="289" />
</g>
<g>
	<rect fill="none" stroke="black" stroke-width="1" stroke-opacity="1" x="288" y="392" width="11" height="102" />
</g>
<g>
	<rect fill="none" stroke="black" stroke-width="1" stroke-opacity="1" x="111" y="89" width="11" height="381" />
</g>
<g>
	<rect fill="none" stroke="black" stroke-width="1" stroke-opacity="1" x="288" y="112" width="11" height="206" />
</g>
<g>
	<rect fill="none" stroke="black" stroke-width="1" stroke-opacity="1" x="1024" y="594" width="11" height="112" />
</g>
<g>
	<rect fill="none" stroke="black" stroke-width="1" stroke-opacity="1" x="629" y="220" width="11" height="31" />
</g>
<g>
	<rect fill="none" stroke="black" stroke-width="1" stroke-opacity="1" x="629" y="447" width="11" height="83" />
</g>
<g>
	<line stroke="black" stroke-opacity="1" x1="19" y1="95" x2="111" y2="95" />
	<polygon fill="#000000" stroke="none" points="111,95 107,91 107,99" />
</g>
<ellipse fill="black" stroke="none" cx="14.5" cy="96.5" rx="4.5" ry="4.5" />
<g>
	<line stroke="black" stroke-opacity="1" x1="123" y1="398" x2="288" y2="398" />
	<polygon fill="#000000" stroke="none" points="288,398 284,394 284,402" />
</g>
<g>
	<line stroke="black" stroke-opacity="1" x1="641" y1="480" x2="820" y2="480" />
	<polygon fill="#000000" stroke="none" points="820,480 816,476 816,484" />
</g>
<g>
	<rect fill="none" stroke="black" stroke-width="1" stroke-opacity="1" x="826" y="522" width="11" height="228" />
</g>
<g>
	<line stroke="black" stroke-opacity="1" x1="123" y1="129" x2="288" y2="129" />
	<polygon fill="#000000" stroke="none" points="288,129 284,125 284,133" />
</g>
<g>
	<rect fill="none" stroke="black" stroke-width="1" stroke-opacity="1" x="294" y="150" width="11" height="137" />
</g>
<g>
	<rect fill="none" stroke="black" stroke-width="1" stroke-opacity="1" x="294" y="424" width="11" height="61" />
</g>
<g>
	<path fill="none" stroke="black" stroke-opacity="1" d="M 839 523 L 856 523 L 856 530 L 839 530" />
	<polygon fill="#000000" stroke="none" points="839,530 843,534 843,526" />
</g>
<g>
	<path fill="none" stroke="black" stroke-opacity="1" d="M 307 151 L 324 151 L 324 158 L 307 158" />
	<polygon fill="#000000" stroke="none" points="307,158 311,162 311,154" />
</g>
<g>
	<path fill="none" stroke="black" stroke-opacity="1" d="M 307 425 L 324 425 L 324 432 L 307 432" />
	<polygon fill="#000000" stroke="none" points="307,432 311,436 311,428" />
</g>
<g>
	<line stroke="black" stroke-opacity="1" x1="306" y1="452" x2="629" y2="452" />
	<polygon fill="#000000" stroke="none" points="629,452 625,448 625,456" />
</g>
<g>
	<rect fill="none" stroke="black" stroke-width="1" stroke-opacity="1" x="832" y="559" width="11" height="134" />
</g>
<g>
	<rect fill="none" stroke="black" stroke-width="1" stroke-opacity="1" x="300" y="190" width="11" height="77" />
</g>
<g>
	<path fill="none" stroke="black" stroke-opacity="1" d="M 845 560 L 862 560 L 862 567 L 845 567" />
	<polygon fill="#000000" stroke="none" points="845,567 849,571 849,563" />
</g>
<g>
	<line stroke="black" stroke-opacity="1" x1="312" y1="224" x2="629" y2="224" />
	<polygon fill="#000000" stroke="none" points="629,224 625,220 625,228" />
</g>
<g>
	<line stroke="black" stroke-opacity="1" stroke-dasharray="4,4" x1="123" y1="254" x2="300" y2="254" />
	<path fill="none" stroke="black" stroke-opacity="1" d="M 127 250 L 123 254 L 127 258" />
</g>
<g>
	<line stroke="black" stroke-opacity="1" x1="844" y1="597" x2="1024" y2="597" />
	<polygon fill="#000000" stroke="none" points="1024,597 1020,593 1020,601" />
</g>
<g>
	<path fill="none" stroke="black" stroke-opacity="1" d="M 313 191 L 330 191 L 330 198 L 313 198" />
	<polygon fill="#000000" stroke="none" points="313,198 317,202 317,194" />
</g>
<g>
	<text font-family="Helvetica" font-size="12" fill="#000000" xml:space="preserve" x="753" y="586">11.mSensors = mSensorServer-&gt;getSensorList(...)</text>
</g>
<g>
	<text font-family="Helvetica" font-size="12" fill="#000000" xml:space="preserve" x="120" y="384">5.mNumSensors = ASensorManager_getSensorList(...)</text>
</g>
<g>
	<text font-family="Helvetica" font-size="12" fill="#000000" xml:space="preserve" x="42" y="81">main()</text>
</g>
<g>
	<text font-family="Helvetica" font-size="12" fill="#000000" xml:space="preserve" x="192" y="182">4.sInstance = new ASensorManager</text>
</g>
<g>
	<text font-family="Helvetica" font-size="12" fill="#000000" xml:space="preserve" x="548" y="469">8.mInternalManager = &amp;getInstanceForPackage()</text>
</g>
<g>
	<text font-family="Helvetica" font-size="12" fill="#000000" xml:space="preserve" x="777" y="516">9.getSensorList(...)</text>
</g>
<g>
	<text font-family="Helvetica" font-size="12" fill="#000000" xml:space="preserve" x="767" y="552">10.assertStateLocked()</text>
</g>
<g>
	<text font-family="Helvetica" font-size="12" fill="#000000" xml:space="preserve" x="13" y="112">2.mSensorManager = ASensorManager_getInstanceForPackage(&quot;&quot;);</text>
</g>
<g>
	<text font-family="Helvetica" font-size="12" fill="#000000" xml:space="preserve" x="262" y="144">3.getInstance()</text>
</g>
<g>
	<text font-family="Helvetica" font-size="12" fill="#000000" xml:space="preserve" x="174" y="241">sInstance</text>
</g>
<g>
	<text font-family="Helvetica" font-size="12" fill="#000000" xml:space="preserve" x="352" y="442">7. mManager-&gt;getSensorList(...)</text>
</g>
<g>
	<text font-family="Helvetica" font-size="12" fill="#000000" xml:space="preserve" x="303" y="215">4.1mManager = ISensorManager::getService();</text>
</g>
<g>
	<text font-family="Helvetica" font-size="12" fill="#000000" xml:space="preserve" x="240" y="417">6.getSensorList(list)</text>
</g>
<g>
	<polygon fill="#00aa00" stroke="black" stroke-opacity="1" points="435,35 732,35 732,46 743,46 743,92 435,92 435,35" />
	<line stroke="black" stroke-opacity="1" x1="732" y1="35" x2="743" y2="46" />
	<text font-family="Helvetica" font-size="12" fill="#000000" xml:space="preserve" x="446" y="65">frameworks/native/services</text>
	<text font-family="Helvetica" font-size="12" fill="#000000" xml:space="preserve" x="446" y="84">/sensorservice/hidl/SensorManager.cpp</text>
</g>
<g>
	<rect fill="#cbcbcb" stroke="none" stroke-opacity="1" x="902" y="324" width="3" height="25" />
	<rect fill="#cbcbcb" stroke="none" stroke-opacity="1" x="749" y="346" width="156" height="3" />
	<rect fill="#ffffc0" stroke="black" stroke-width="1" stroke-opacity="1" x="745" y="320" width="157" height="26" />
	<text font-family="Helvetica" font-size="12" fill="#000000" xml:space="preserve" text-decoration="underline" text-anchor="middle" x="824" y="339">:SensorManager.cpp</text>
</g>
</svg>
